<svg width="22" height="21" viewBox="0 0 22 21" fill="none" xmlns="http://www.w3.org/2000/svg">
<path fill-rule="evenodd" clip-rule="evenodd" d="M10.9932 4.13581C8.9938 1.7984 5.65975 1.16964 3.15469 3.31001C0.649644 5.45038 0.296968 9.02898 2.2642 11.5604C3.75009 13.4724 7.97129 17.311 9.94801 19.0749C10.3114 19.3991 10.4931 19.5613 10.7058 19.6251C10.8905 19.6805 11.0958 19.6805 11.2805 19.6251C11.4932 19.5613 11.6749 19.3991 12.0383 19.0749C14.015 17.311 18.2362 13.4724 19.7221 11.5604C21.6893 9.02898 21.3797 5.42787 18.8316 3.31001C16.2835 1.19216 12.9925 1.7984 10.9932 4.13581Z" fill="white"/>
<path d="M8 10L10 12L14.5 7.5M10.9932 4.13581C8.9938 1.7984 5.65975 1.16964 3.15469 3.31001C0.649644 5.45038 0.296968 9.02898 2.2642 11.5604C3.75009 13.4724 7.97129 17.311 9.94801 19.0749C10.3114 19.3991 10.4931 19.5613 10.7058 19.6251C10.8905 19.6805 11.0958 19.6805 11.2805 19.6251C11.4932 19.5613 11.6749 19.3991 12.0383 19.0749C14.015 17.311 18.2362 13.4724 19.7221 11.5604C21.6893 9.02898 21.3797 5.42787 18.8316 3.31001C16.2835 1.19216 12.9925 1.7984 10.9932 4.13581Z" stroke="white" stroke-width="2" stroke-linecap="round" stroke-linejoin="round"/>
</svg>
