<svg width="18" height="19" viewBox="0 0 18 19" fill="none" xmlns="http://www.w3.org/2000/svg">
<path d="M17 8.5C17 13.5681 11.0282 16.9702 9.40373 17.8018C9.1468 17.9334 8.8532 17.9334 8.59627 17.8018C6.97178 16.9702 1 13.5681 1 8.5C1 4 4.87627 1 9 1C13.2667 1 17 4 17 8.5Z" stroke="#828282" stroke-width="2"/>
<path d="M5.97014 8.81068L8.7687 11.7565C8.8614 11.8541 8.90775 11.9029 8.96407 11.9142C8.98778 11.919 9.01222 11.919 9.03593 11.9142C9.09225 11.9029 9.1386 11.8541 9.2313 11.7565L12.0299 8.81068C12.6002 8.21031 12.6894 7.29908 12.2463 6.5995C11.5085 5.43441 9.78995 5.4922 9.132 6.70422L9.06237 6.83247C9.03551 6.88195 8.96449 6.88195 8.93763 6.83247L8.86801 6.70422C8.21005 5.4922 6.49154 5.43441 5.75365 6.5995C5.31058 7.29908 5.3998 8.21031 5.97014 8.81068Z" stroke="#828282" stroke-width="2"/>
</svg>
