<svg width="16" height="19" viewBox="0 0 16 19" fill="none" xmlns="http://www.w3.org/2000/svg">
<path d="M1 9.75961C1 8.40185 1 7.72297 1.27446 7.12623C1.54892 6.52949 2.06437 6.08769 3.09525 5.20407L4.09525 4.34693C5.95857 2.7498 6.89023 1.95123 8 1.95123C9.10977 1.95123 10.0414 2.7498 11.9047 4.34693L12.9047 5.20407C13.9356 6.08769 14.4511 6.52949 14.7255 7.12623C15 7.72297 15 8.40185 15 9.75961V14C15 15.8856 15 16.8284 14.4142 17.4142C13.8284 18 12.8856 18 11 18H5C3.11438 18 2.17157 18 1.58579 17.4142C1 16.8284 1 15.8856 1 14V9.75961Z" stroke="#828282" stroke-width="2"/>
<path d="M10.5 18V13C10.5 12.4477 10.0523 12 9.5 12H6.5C5.94772 12 5.5 12.4477 5.5 13V18" stroke="#828282" stroke-width="2" stroke-linecap="round" stroke-linejoin="round"/>
</svg>
