<svg width="26" height="26" viewBox="0 0 26 26" fill="none" xmlns="http://www.w3.org/2000/svg">
<path fill-rule="evenodd" clip-rule="evenodd" d="M0 13C0 5.8203 5.8203 0 13 0C20.1797 0 26 5.8203 26 13C26 17.0332 24.1633 20.6374 21.2808 23.0219C20.7118 21.4397 19.6992 20.0483 18.3571 19.0185C16.8202 17.8392 14.9372 17.2 13 17.2C11.0628 17.2 9.17977 17.8392 7.6429 19.0185C6.30083 20.0483 5.28825 21.4397 4.71924 23.0219C1.83667 20.6374 0 17.0332 0 13ZM17.1396 20.6052C18.3227 21.513 19.1744 22.7845 19.5639 24.2236C17.6374 25.3527 15.3943 26 13 26C10.6057 26 8.36261 25.3527 6.43612 24.2236C6.8256 22.7845 7.67733 21.513 8.86042 20.6052C10.048 19.6939 11.5031 19.2 13 19.2C14.4969 19.2 15.952 19.6939 17.1396 20.6052ZM10.1 9.1C10.1 7.49837 11.3984 6.2 13 6.2C14.6016 6.2 15.9 7.49837 15.9 9.1C15.9 10.7016 14.6016 12 13 12C11.3984 12 10.1 10.7016 10.1 9.1ZM13 4.2C10.2938 4.2 8.1 6.3938 8.1 9.1C8.1 11.8062 10.2938 14 13 14C15.7062 14 17.9 11.8062 17.9 9.1C17.9 6.3938 15.7062 4.2 13 4.2Z" fill="#696969"/>
</svg>
